<?xml version="1.0" encoding="utf-8"?>
<!-- Generator: Adobe Illustrator 19.0.0, SVG Export Plug-In . SVG Version: 6.00 Build 0)  -->
<svg version="1.1" id="圖層_1" xmlns="http://www.w3.org/2000/svg" xmlns:xlink="http://www.w3.org/1999/xlink" x="0px" y="0px"
	 viewBox="0 0 300 182.8" style="enable-background:new 0 0 300 182.8;" xml:space="preserve">
<style type="text/css">
	.st0{fill:#3E3A39;stroke:#3E3A39;stroke-width:0.25;stroke-linecap:round;stroke-miterlimit:10;}
</style>
<g id="XMLID_3_">
	<path id="XMLID_4_" class="st0" d="M11.4,11.2l3.5,0l0,0.8l-3.5,0L11.4,11.2z"/>
	<path id="XMLID_6_" class="st0" d="M16.2,11.2l3.5,0l0,0.8l-3.5,0L16.2,11.2z"/>
	<path id="XMLID_8_" class="st0" d="M20.9,11.2l3.5,0l0,0.8l-3.5,0L20.9,11.2z"/>
	<path id="XMLID_10_" class="st0" d="M25.7,11.2l3.5,0l0,0.8l-3.5,0L25.7,11.2z"/>
	<path id="XMLID_12_" class="st0" d="M30.4,11.1l3.5,0l0,0.8l-3.5,0L30.4,11.1z"/>
	<path id="XMLID_14_" class="st0" d="M58.9,11.1l3.5,0l0,0.8l-3.5,0L58.9,11.1z"/>
	<path id="XMLID_16_" class="st0" d="M63.7,11.1l3.5,0l0,0.8l-3.5,0L63.7,11.1z"/>
	<path id="XMLID_18_" class="st0" d="M68.4,11.1l3.5,0l0,0.8l-3.5,0L68.4,11.1z"/>
	<path id="XMLID_20_" class="st0" d="M73.2,11.1l3.5,0l0,0.8l-3.5,0L73.2,11.1z"/>
	<path id="XMLID_22_" class="st0" d="M78,11.1l3.5,0l0,0.8l-3.5,0L78,11.1z"/>
	<path id="XMLID_24_" class="st0" d="M82.7,11.1l3.5,0l0,0.8l-3.5,0L82.7,11.1z"/>
	<path id="XMLID_26_" class="st0" d="M101.7,11l3.5,0l0,0.8l-3.5,0L101.7,11z"/>
	<path id="XMLID_28_" class="st0" d="M106.5,11l3.5,0l0,0.8l-3.5,0L106.5,11z"/>
	<path id="XMLID_30_" class="st0" d="M111.2,11l3.5,0l0,0.8l-3.5,0L111.2,11z"/>
	<path id="XMLID_32_" class="st0" d="M116,11l3.5,0l0,0.8l-3.5,0L116,11z"/>
	<path id="XMLID_34_" class="st0" d="M120.7,11l3.5,0l0,0.8l-3.5,0L120.7,11z"/>
	<path id="XMLID_36_" class="st0" d="M125.5,11l3.5,0l0,0.8l-3.5,0L125.5,11z"/>
	<path id="XMLID_38_" class="st0" d="M9.4,14.1l0.8,0.3l-2.8,6.4l-0.8-0.4L9.4,14.1z"/>
	<path id="XMLID_40_" class="st0" d="M15,20.5l-0.8,0.4l-2.9-6.4l0.8-0.3L15,20.5z"/>
	<path id="XMLID_42_" class="st0" d="M25.7,20.7l3.5,0l0,0.8l-3.5,0L25.7,20.7z"/>
	<path id="XMLID_44_" class="st0" d="M37.7,15.2l-0.6,0L35.9,14l1.3,0L37.7,15.2z"/>
	<path id="XMLID_46_" class="st0" d="M43.5,20.5l-0.8,0.4l-2.9-6.4l0.8-0.3L43.5,20.5z"/>
	<path id="XMLID_48_" class="st0" d="M57,14l0.8,0.3l-2.8,6.4l-0.8-0.4L57,14z"/>
	<path id="XMLID_50_" class="st0" d="M62.5,20.4l-0.8,0.4l-2.9-6.4l0.8-0.3L62.5,20.4z"/>
	<path id="XMLID_52_" class="st0" d="M63.7,20.6l3.5,0l0,0.8l-3.5,0L63.7,20.6z"/>
	<path id="XMLID_54_" class="st0" d="M68.5,20.6l3.5,0l0,0.8l-3.5,0L68.5,20.6z"/>
	<path id="XMLID_56_" class="st0" d="M82.7,20.6l3.5,0l0,0.8l-3.5,0L82.7,20.6z"/>
	<path id="XMLID_58_" class="st0" d="M91.1,20.4l-0.8,0.4l-2.9-6.4l0.8-0.3L91.1,20.4z"/>
	<path id="XMLID_60_" class="st0" d="M99.8,14l0.8,0.3l-2.8,6.4l-0.8-0.4L99.8,14z"/>
	<path id="XMLID_62_" class="st0" d="M105.3,20.4l-0.8,0.4l-2.9-6.4l0.8-0.3L105.3,20.4z"/>
	<path id="XMLID_64_" class="st0" d="M106.5,20.5l3.5,0l0,0.8l-3.5,0L106.5,20.5z"/>
	<path id="XMLID_66_" class="st0" d="M111.2,20.5l3.5,0l0,0.8l-3.5,0L111.2,20.5z"/>
	<path id="XMLID_68_" class="st0" d="M125.5,20.5l3.5,0l0,0.8l-3.5,0L125.5,20.5z"/>
	<path id="XMLID_70_" class="st0" d="M133.8,20.3l-0.8,0.4l-2.9-6.4l0.8-0.3L133.8,20.3z"/>
	<path id="XMLID_72_" class="st0" d="M10.3,30l-0.8,0.4L6.6,24l0.8-0.3L10.3,30z"/>
	<path id="XMLID_74_" class="st0" d="M19.8,30L19,30.4L16.1,24l0.8-0.3L19.8,30z"/>
	<path id="XMLID_76_" class="st0" d="M29.3,30l-0.8,0.4l-2.9-6.4l0.8-0.3L29.3,30z"/>
	<path id="XMLID_78_" class="st0" d="M33.1,27l1,0l0,2.3l-3.6,0l0-5.5l1.1,0l0,4.6l1.6,0L33.1,27z"/>
	<path id="XMLID_80_" class="st0" d="M38.8,30L38,30.3l-2.9-6.4l0.8-0.3L38.8,30z"/>
	<path id="XMLID_82_" class="st0" d="M48.3,30l-0.8,0.4l-2.9-6.4l0.8-0.3L48.3,30z"/>
	<path id="XMLID_84_" class="st0" d="M57.8,29.9L57,30.3l-2.9-6.4l0.8-0.3L57.8,29.9z"/>
	<path id="XMLID_86_" class="st0" d="M61.7,23.5l0.8,0.3l-2.8,6.4l-0.8-0.4L61.7,23.5z"/>
	<path id="XMLID_88_" class="st0" d="M63.7,30.1l3.5,0l0,0.8l-3.5,0L63.7,30.1z"/>
	<path id="XMLID_90_" class="st0" d="M71.2,23.5l0.8,0.3l-2.8,6.4l-0.8-0.4L71.2,23.5z"/>
	<path id="XMLID_92_" class="st0" d="M76.8,29.9L76,30.3l-2.9-6.4l0.8-0.3L76.8,29.9z"/>
	<path id="XMLID_94_" class="st0" d="M86.3,29.9l-0.8,0.4l-2.9-6.4l0.8-0.3L86.3,29.9z"/>
	<path id="XMLID_96_" class="st0" d="M90.3,23.5l0.8,0.3l-2.8,6.4l-0.8-0.4L90.3,23.5z"/>
	<path id="XMLID_98_" class="st0" d="M100.6,29.9l-0.8,0.4l-2.9-6.4l0.8-0.3L100.6,29.9z"/>
	<path id="XMLID_100_" class="st0" d="M104.5,23.5l0.8,0.3l-2.8,6.4l-0.8-0.4L104.5,23.5z"/>
	<path id="XMLID_102_" class="st0" d="M106.5,30l3.5,0l0,0.8l-3.5,0L106.5,30z"/>
	<path id="XMLID_104_" class="st0" d="M114,23.5l0.8,0.3l-2.8,6.4l-0.8-0.4L114,23.5z"/>
	<path id="XMLID_106_" class="st0" d="M119.6,29.8l-0.8,0.4l-2.9-6.4l0.8-0.3L119.6,29.8z"/>
	<path id="XMLID_108_" class="st0" d="M129.1,29.8l-0.8,0.4l-2.9-6.4l0.8-0.3L129.1,29.8z"/>
	<path id="XMLID_110_" class="st0" d="M133,23.4l0.8,0.3l-2.8,6.4l-0.8-0.4L133,23.4z"/>
	<path id="XMLID_112_" class="st0" d="M15,39.5l-0.8,0.4l-2.9-6.4l0.8-0.3L15,39.5z"/>
	<path id="XMLID_114_" class="st0" d="M24.6,39.5l-0.8,0.4l-2.9-6.4l0.8-0.3L24.6,39.5z"/>
	<path id="XMLID_116_" class="st0" d="M31.6,38.2c0-0.2,0.1-0.3,0.2-0.4c0.1-0.1,0.3-0.2,0.4-0.2c0.3,0,0.5,0.1,0.7,0.3
		c0.1,0.2,0.2,0.4,0.2,0.7c0,0.2,0,0.5-0.1,0.6c-0.1,0.2-0.2,0.4-0.4,0.5c-0.1,0.1-0.3,0.3-0.5,0.3c-0.2,0.1-0.4,0.2-0.5,0.2
		l-0.2-0.4c0.1,0,0.3-0.1,0.4-0.1c0.1-0.1,0.2-0.1,0.4-0.2c0.1-0.1,0.2-0.2,0.3-0.3c0.1-0.1,0.1-0.2,0.1-0.4c-0.2,0-0.3,0-0.4,0
		c-0.1,0-0.2-0.1-0.3-0.1s-0.1-0.1-0.2-0.2C31.6,38.4,31.6,38.3,31.6,38.2z"/>
	<path id="XMLID_118_" class="st0" d="M35.2,39.7l3.5,0l0,0.8l-3.5,0L35.2,39.7z"/>
	<path id="XMLID_120_" class="st0" d="M40,39.7l3.5,0l0,0.8l-3.5,0L40,39.7z"/>
	<path id="XMLID_122_" class="st0" d="M47.5,33.1l0.8,0.3l-2.8,6.4l-0.8-0.4L47.5,33.1z"/>
	<path id="XMLID_124_" class="st0" d="M72.1,39.4l-0.8,0.4l-2.9-6.4l0.8-0.3L72.1,39.4z"/>
	<path id="XMLID_126_" class="st0" d="M81.6,39.4l-0.8,0.4l-2.9-6.4l0.8-0.3L81.6,39.4z"/>
	<path id="XMLID_128_" class="st0" d="M91.1,39.4l-0.8,0.4l-2.9-6.4l0.8-0.3L91.1,39.4z"/>
	<path id="XMLID_130_" class="st0" d="M114.9,39.4l-0.8,0.4l-2.9-6.4L112,33L114.9,39.4z"/>
	<path id="XMLID_132_" class="st0" d="M124.4,39.3l-0.8,0.4l-2.9-6.4l0.8-0.3L124.4,39.3z"/>
	<path id="XMLID_134_" class="st0" d="M133.9,39.3l-0.8,0.4l-2.9-6.4l0.8-0.3L133.9,39.3z"/>
	<path id="XMLID_136_" class="st0" d="M19.8,49L19,49.4L16.1,43l0.8-0.3L19.8,49z"/>
	<path id="XMLID_138_" class="st0" d="M29.3,49l-0.8,0.4L25.7,43l0.8-0.3L29.3,49z"/>
	<path id="XMLID_140_" class="st0" d="M38.8,49L38,49.3l-2.9-6.4l0.8-0.3L38.8,49z"/>
	<path id="XMLID_142_" class="st0" d="M42.8,42.6l0.8,0.3l-2.8,6.4L39.9,49L42.8,42.6z"/>
	<path id="XMLID_144_" class="st0" d="M76.8,48.9l-0.8,0.4l-2.9-6.4l0.8-0.3L76.8,48.9z"/>
	<path id="XMLID_146_" class="st0" d="M86.4,48.9l-0.8,0.4l-2.9-6.4l0.8-0.3L86.4,48.9z"/>
	<path id="XMLID_148_" class="st0" d="M95.9,48.9l-0.8,0.4l-2.9-6.4l0.8-0.3L95.9,48.9z"/>
	<path id="XMLID_150_" class="st0" d="M119.6,48.9l-0.8,0.4l-2.9-6.4l0.8-0.3L119.6,48.9z"/>
	<path id="XMLID_152_" class="st0" d="M129.1,48.8l-0.8,0.4l-2.9-6.4l0.8-0.3L129.1,48.8z"/>
	<path id="XMLID_154_" class="st0" d="M138.6,48.8l-0.8,0.4l-2.9-6.4l0.8-0.3L138.6,48.8z"/>
	<path id="XMLID_156_" class="st0" d="M24.6,58.5l-0.8,0.4l-2.9-6.4l0.8-0.3L24.6,58.5z"/>
	<path id="XMLID_158_" class="st0" d="M34.1,58.5l-0.8,0.4l-2.9-6.4l0.8-0.3L34.1,58.5z"/>
	<path id="XMLID_160_" class="st0" d="M35.3,58.7l3.5,0l0,0.8l-3.5,0L35.3,58.7z"/>
	<path id="XMLID_162_" class="st0" d="M43.6,58.5l-0.8,0.4l-2.9-6.4l0.8-0.3L43.6,58.5z"/>
	<path id="XMLID_164_" class="st0" d="M81.6,58.4l-0.8,0.4l-2.9-6.4l0.8-0.3L81.6,58.4z"/>
	<path id="XMLID_166_" class="st0" d="M91.1,58.4l-0.8,0.4l-2.9-6.4l0.8-0.3L91.1,58.4z"/>
	<path id="XMLID_168_" class="st0" d="M92.3,58.6l3.5,0l0,0.8l-3.5,0L92.3,58.6z"/>
	<path id="XMLID_170_" class="st0" d="M100.6,58.4l-0.8,0.4L97,52.4l0.8-0.3L100.6,58.4z"/>
	<path id="XMLID_172_" class="st0" d="M124.4,58.4l-0.8,0.4l-2.9-6.4l0.8-0.3L124.4,58.4z"/>
	<path id="XMLID_174_" class="st0" d="M133.9,58.3l-0.8,0.4l-2.9-6.4L131,52L133.9,58.3z"/>
	<path id="XMLID_176_" class="st0" d="M135.1,58.5l3.5,0l0,0.8l-3.5,0L135.1,58.5z"/>
	<path id="XMLID_178_" class="st0" d="M143.4,58.3l-0.8,0.4l-2.9-6.4l0.8-0.3L143.4,58.3z"/>
	<path id="XMLID_180_" class="st0" d="M29.4,68l-0.8,0.4L25.7,62l0.8-0.3L29.4,68z"/>
	<path id="XMLID_182_" class="st0" d="M33.3,61.6l0.8,0.3l-2.8,6.4L30.5,68L33.3,61.6z"/>
	<path id="XMLID_184_" class="st0" d="M35.3,68.2l3.5,0l0,0.8l-3.5,0L35.3,68.2z"/>
	<path id="XMLID_186_" class="st0" d="M42.8,61.6l0.8,0.3l-2.8,6.4L40,68L42.8,61.6z"/>
	<path id="XMLID_188_" class="st0" d="M86.4,67.9l-0.8,0.4l-2.9-6.4l0.8-0.3L86.4,67.9z"/>
	<path id="XMLID_190_" class="st0" d="M90.3,61.5l0.8,0.3l-2.8,6.4l-0.8-0.4L90.3,61.5z"/>
	<path id="XMLID_192_" class="st0" d="M92.3,68.1l3.5,0l0,0.8l-3.5,0L92.3,68.1z"/>
	<path id="XMLID_194_" class="st0" d="M99.8,61.5l0.8,0.3l-2.8,6.4L97,67.9L99.8,61.5z"/>
	<path id="XMLID_196_" class="st0" d="M129.2,67.9l-0.8,0.4l-2.9-6.4l0.8-0.3L129.2,67.9z"/>
	<path id="XMLID_198_" class="st0" d="M133.1,61.5l0.8,0.3l-2.8,6.4l-0.8-0.4L133.1,61.5z"/>
	<path id="XMLID_200_" class="st0" d="M135.1,68l3.5,0l0,0.8l-3.5,0L135.1,68z"/>
	<path id="XMLID_202_" class="st0" d="M142.6,61.4l0.8,0.3l-2.8,6.4l-0.8-0.4L142.6,61.4z"/>
	<path id="XMLID_204_" class="st0" d="M49.6,96.7l3.5,0l0,0.8l-3.5,0L49.6,96.7z"/>
	<path id="XMLID_206_" class="st0" d="M54.3,96.7l3.5,0l0,0.8l-3.5,0L54.3,96.7z"/>
	<path id="XMLID_208_" class="st0" d="M59.1,96.7l3.5,0l0,0.8l-3.5,0L59.1,96.7z"/>
	<path id="XMLID_210_" class="st0" d="M63.8,96.7l3.5,0l0,0.8l-3.5,0L63.8,96.7z"/>
	<path id="XMLID_212_" class="st0" d="M68.6,96.6l3.5,0l0,0.8l-3.5,0L68.6,96.6z"/>
	<path id="XMLID_214_" class="st0" d="M47.6,99.6l0.8,0.3l-2.8,6.4l-0.8-0.4L47.6,99.6z"/>
	<path id="XMLID_216_" class="st0" d="M53.2,106l-0.8,0.4l-2.9-6.4l0.8-0.3L53.2,106z"/>
	<path id="XMLID_218_" class="st0" d="M63.8,106.2l3.5,0l0,0.8l-3.5,0L63.8,106.2z"/>
	<path id="XMLID_220_" class="st0" d="M75.9,100.7l-0.6,0l-1.2-1.2l1.3,0L75.9,100.7z"/>
	<path id="XMLID_222_" class="st0" d="M81.7,106l-0.8,0.4L78,99.9l0.8-0.3L81.7,106z"/>
	<path id="XMLID_224_" class="st0" d="M48.4,115.5l-0.8,0.4l-2.9-6.4l0.8-0.3L48.4,115.5z"/>
	<path id="XMLID_226_" class="st0" d="M57.9,115.5l-0.8,0.4l-2.9-6.4l0.8-0.3L57.9,115.5z"/>
	<path id="XMLID_228_" class="st0" d="M67.4,115.5l-0.8,0.4l-2.9-6.4l0.8-0.3L67.4,115.5z"/>
	<path id="XMLID_230_" class="st0" d="M71.4,109.1l0.8,0.3l-2.8,6.4l-0.8-0.4L71.4,109.1z"/>
	<path id="XMLID_232_" class="st0" d="M77,115.5l-0.8,0.4l-2.9-6.4l0.8-0.3L77,115.5z"/>
	<path id="XMLID_234_" class="st0" d="M78.1,115.6l3.5,0l0,0.8l-3.5,0L78.1,115.6z"/>
	<path id="XMLID_236_" class="st0" d="M86.5,115.5l-0.8,0.4l-2.9-6.4l0.8-0.3L86.5,115.5z"/>
	<path id="XMLID_238_" class="st0" d="M106.6,115.6l3.5,0l0,0.8l-3.5,0L106.6,115.6z"/>
	<path id="XMLID_240_" class="st0" d="M111.4,115.6l3.5,0l0,0.8l-3.5,0L111.4,115.6z"/>
	<path id="XMLID_242_" class="st0" d="M116.1,115.6l3.5,0l0,0.8l-3.5,0L116.1,115.6z"/>
	<path id="XMLID_244_" class="st0" d="M139.9,115.5l3.5,0l0,0.8l-3.5,0L139.9,115.5z"/>
	<path id="XMLID_246_" class="st0" d="M149.4,115.5l3.5,0l0,0.8l-3.5,0L149.4,115.5z"/>
	<path id="XMLID_248_" class="st0" d="M154.2,115.5l3.5,0l0,0.8l-3.5,0L154.2,115.5z"/>
	<path id="XMLID_250_" class="st0" d="M158.9,115.5l3.5,0l0,0.8l-3.5,0L158.9,115.5z"/>
	<path id="XMLID_252_" class="st0" d="M173.2,115.5l3.5,0l0,0.8l-3.5,0L173.2,115.5z"/>
	<path id="XMLID_254_" class="st0" d="M177.9,115.5l3.5,0l0,0.8l-3.5,0L177.9,115.5z"/>
	<path id="XMLID_256_" class="st0" d="M182.7,115.5l3.5,0l0,0.8l-3.5,0L182.7,115.5z"/>
	<path id="XMLID_258_" class="st0" d="M187.4,115.5l3.5,0l0,0.8l-3.5,0L187.4,115.5z"/>
	<path id="XMLID_260_" class="st0" d="M192.2,115.5l3.5,0l0,0.8l-3.5,0L192.2,115.5z"/>
	<path id="XMLID_262_" class="st0" d="M216,115.4l3.5,0l0,0.8l-3.5,0L216,115.4z"/>
	<path id="XMLID_264_" class="st0" d="M220.7,115.4l3.5,0l0,0.8l-3.5,0L220.7,115.4z"/>
	<path id="XMLID_266_" class="st0" d="M235,115.4l3.5,0l0,0.8l-3.5,0L235,115.4z"/>
	<path id="XMLID_268_" class="st0" d="M239.7,115.4l3.5,0l0,0.8l-3.5,0L239.7,115.4z"/>
	<path id="XMLID_270_" class="st0" d="M263.5,115.4l3.5,0l0,0.8l-3.5,0L263.5,115.4z"/>
	<path id="XMLID_272_" class="st0" d="M268.2,115.3l3.5,0l0,0.8l-3.5,0L268.2,115.3z"/>
	<path id="XMLID_274_" class="st0" d="M273,115.3l3.5,0l0,0.8l-3.5,0L273,115.3z"/>
	<path id="XMLID_276_" class="st0" d="M277.8,115.3l3.5,0l0,0.8l-3.5,0L277.8,115.3z"/>
	<path id="XMLID_278_" class="st0" d="M53.2,125l-0.8,0.4l-2.9-6.4l0.8-0.3L53.2,125z"/>
	<path id="XMLID_280_" class="st0" d="M62.7,125l-0.8,0.4L59,119l0.8-0.3L62.7,125z"/>
	<path id="XMLID_282_" class="st0" d="M72.2,125l-0.8,0.4l-2.9-6.4l0.8-0.3L72.2,125z"/>
	<path id="XMLID_284_" class="st0" d="M76.2,118.6l0.8,0.3l-2.8,6.4l-0.8-0.4L76.2,118.6z"/>
	<path id="XMLID_286_" class="st0" d="M78.1,125.1l3.5,0l0,0.8l-3.5,0L78.1,125.1z"/>
	<path id="XMLID_288_" class="st0" d="M85.7,118.6l0.8,0.3l-2.8,6.4l-0.8-0.4L85.7,118.6z"/>
	<path id="XMLID_290_" class="st0" d="M87.6,125.1l3.5,0l0,0.8l-3.5,0L87.6,125.1z"/>
	<path id="XMLID_292_" class="st0" d="M104.7,118.5l0.8,0.3l-2.8,6.4l-0.8-0.4L104.7,118.5z"/>
	<path id="XMLID_294_" class="st0" d="M111.4,125.1l3.5,0l0,0.8l-3.5,0L111.4,125.1z"/>
	<path id="XMLID_296_" class="st0" d="M116.2,125.1l3.5,0l0,0.8l-3.5,0L116.2,125.1z"/>
	<path id="XMLID_298_" class="st0" d="M123.4,119.7l-0.6,0l-1.2-1.2l1.3,0L123.4,119.7z"/>
	<path id="XMLID_300_" class="st0" d="M129.3,124.9l-0.8,0.4l-2.9-6.4l0.8-0.3L129.3,124.9z"/>
	<path id="XMLID_302_" class="st0" d="M137.9,118.5l0.8,0.3l-2.8,6.4l-0.8-0.4L137.9,118.5z"/>
	<path id="XMLID_304_" class="st0" d="M143.5,124.9l-0.8,0.4l-2.9-6.4l0.8-0.3L143.5,124.9z"/>
	<path id="XMLID_306_" class="st0" d="M147.2,119.6l-0.6,0l-1.2-1.2l1.3,0L147.2,119.6z"/>
	<path id="XMLID_308_" class="st0" d="M150.7,118.6l0.9,0l-0.3,2.5l-0.6,0L150.7,118.6z"/>
	<path id="XMLID_310_" class="st0" d="M154.2,125l3.5,0l0,0.8l-3.5,0L154.2,125z"/>
	<path id="XMLID_312_" class="st0" d="M158.9,125l3.5,0l0,0.8l-3.5,0L158.9,125z"/>
	<path id="XMLID_314_" class="st0" d="M167.3,124.8l-0.8,0.4l-2.9-6.4l0.8-0.3L167.3,124.8z"/>
	<path id="XMLID_316_" class="st0" d="M171.2,118.4l0.8,0.3l-2.8,6.4l-0.8-0.4L171.2,118.4z"/>
	<path id="XMLID_318_" class="st0" d="M176.8,124.8l-0.8,0.4l-2.9-6.4l0.8-0.3L176.8,124.8z"/>
	<path id="XMLID_320_" class="st0" d="M187.5,125l3.5,0l0,0.8l-3.5,0L187.5,125z"/>
	<path id="XMLID_322_" class="st0" d="M192.2,125l3.5,0l0,0.8l-3.5,0L192.2,125z"/>
	<path id="XMLID_324_" class="st0" d="M199.5,119.5l-0.6,0l-1.2-1.2l1.3,0L199.5,119.5z"/>
	<path id="XMLID_326_" class="st0" d="M205.3,124.8l-0.8,0.4l-2.9-6.4l0.8-0.3L205.3,124.8z"/>
	<path id="XMLID_328_" class="st0" d="M214,118.4l0.8,0.3l-2.8,6.4l-0.8-0.4L214,118.4z"/>
	<path id="XMLID_330_" class="st0" d="M219.6,124.8l-0.8,0.4l-2.9-6.4l0.8-0.3L219.6,124.8z"/>
	<path id="XMLID_332_" class="st0" d="M229.1,124.7l-0.8,0.4l-2.9-6.4l0.8-0.3L229.1,124.7z"/>
	<path id="XMLID_334_" class="st0" d="M233,118.3l0.8,0.3l-2.8,6.4l-0.8-0.4L233,118.3z"/>
	<path id="XMLID_336_" class="st0" d="M238.6,124.7l-0.8,0.4l-2.9-6.4l0.8-0.3L238.6,124.7z"/>
	<path id="XMLID_338_" class="st0" d="M248.1,124.7l-0.8,0.4l-2.9-6.4l0.8-0.3L248.1,124.7z"/>
	<path id="XMLID_340_" class="st0" d="M261.5,118.3l0.8,0.3l-2.8,6.4l-0.8-0.4L261.5,118.3z"/>
	<path id="XMLID_342_" class="st0" d="M264.8,118.4l0.9,0l-0.3,2.5l-0.6,0L264.8,118.4z"/>
	<path id="XMLID_344_" class="st0" d="M269.4,123.4c0-0.2,0.1-0.3,0.2-0.4c0.1-0.1,0.3-0.2,0.4-0.2c0.3,0,0.5,0.1,0.7,0.3
		c0.1,0.2,0.2,0.4,0.2,0.7c0,0.2,0,0.5-0.1,0.7c-0.1,0.2-0.2,0.4-0.4,0.5c-0.1,0.1-0.3,0.3-0.5,0.4c-0.2,0.1-0.4,0.2-0.5,0.2
		l-0.2-0.4c0.1,0,0.3-0.1,0.4-0.1c0.1-0.1,0.2-0.1,0.4-0.2c0.1-0.1,0.2-0.2,0.3-0.3c0.1-0.1,0.1-0.2,0.1-0.4c-0.2,0-0.3,0-0.4,0
		c-0.1,0-0.2-0.1-0.3-0.1c-0.1-0.1-0.1-0.1-0.2-0.2C269.4,123.6,269.4,123.5,269.4,123.4z"/>
	<path id="XMLID_346_" class="st0" d="M273,124.8l3.5,0l0,0.8l-3.5,0L273,124.8z"/>
	<path id="XMLID_348_" class="st0" d="M277.8,124.8l3.5,0l0,0.8l-3.5,0L277.8,124.8z"/>
	<path id="XMLID_350_" class="st0" d="M286.1,124.7l-0.8,0.4l-2.9-6.4l0.8-0.3L286.1,124.7z"/>
	<path id="XMLID_352_" class="st0" d="M58,134.5l-0.8,0.4l-2.9-6.4l0.8-0.3L58,134.5z"/>
	<path id="XMLID_354_" class="st0" d="M67.5,134.5l-0.8,0.4l-2.9-6.4l0.8-0.3L67.5,134.5z"/>
	<path id="XMLID_356_" class="st0" d="M77,134.5l-0.8,0.4l-2.9-6.4l0.8-0.3L77,134.5z"/>
	<path id="XMLID_358_" class="st0" d="M80.8,131.5l1,0l0,2.3l-3.6,0l0-5.5l1.1,0l0,4.6l1.6,0L80.8,131.5z"/>
	<path id="XMLID_360_" class="st0" d="M86.5,134.5l-0.8,0.4l-2.9-6.4l0.8-0.3L86.5,134.5z"/>
	<path id="XMLID_362_" class="st0" d="M96,134.5l-0.8,0.4l-2.9-6.4l0.8-0.3L96,134.5z"/>
	<path id="XMLID_364_" class="st0" d="M99.9,128.1l0.8,0.3l-2.8,6.4l-0.8-0.4L99.9,128.1z"/>
	<path id="XMLID_366_" class="st0" d="M105.5,134.4l-0.8,0.4l-2.9-6.4l0.8-0.3L105.5,134.4z"/>
	<path id="XMLID_368_" class="st0" d="M115,134.4l-0.8,0.4l-2.9-6.4l0.8-0.3L115,134.4z"/>
	<path id="XMLID_370_" class="st0" d="M118.8,131.4l1,0l0,2.3l-3.6,0l0-5.5l1.1,0l0,4.6l1.6,0L118.8,131.4z"/>
	<path id="XMLID_372_" class="st0" d="M124.5,134.4l-0.8,0.4l-2.9-6.4l0.8-0.3L124.5,134.4z"/>
	<path id="XMLID_374_" class="st0" d="M134,134.4l-0.8,0.4l-2.9-6.4l0.8-0.3L134,134.4z"/>
	<path id="XMLID_376_" class="st0" d="M138.8,134.4l-0.8,0.4l-2.9-6.4l0.8-0.3L138.8,134.4z"/>
	<path id="XMLID_378_" class="st0" d="M148.3,134.4l-0.8,0.4l-2.9-6.4l0.8-0.3L148.3,134.4z"/>
	<path id="XMLID_380_" class="st0" d="M157.8,134.4l-0.8,0.4l-2.9-6.4l0.8-0.3L157.8,134.4z"/>
	<path id="XMLID_382_" class="st0" d="M161.7,128l0.8,0.3l-2.8,6.4l-0.8-0.4L161.7,128z"/>
	<path id="XMLID_384_" class="st0" d="M172,134.3l-0.8,0.4l-2.9-6.4l0.8-0.3L172,134.3z"/>
	<path id="XMLID_386_" class="st0" d="M181.5,134.3l-0.8,0.4l-2.9-6.4l0.8-0.3L181.5,134.3z"/>
	<path id="XMLID_388_" class="st0" d="M191.1,134.3l-0.8,0.4l-2.9-6.4l0.8-0.3L191.1,134.3z"/>
	<path id="XMLID_390_" class="st0" d="M194.9,131.3l1,0l0,2.3l-3.6,0l0-5.5l1.1,0l0,4.6l1.6,0L194.9,131.3z"/>
	<path id="XMLID_392_" class="st0" d="M200.6,134.3l-0.8,0.4l-2.9-6.4l0.8-0.3L200.6,134.3z"/>
	<path id="XMLID_394_" class="st0" d="M210.1,134.3l-0.8,0.4l-2.9-6.4l0.8-0.3L210.1,134.3z"/>
	<path id="XMLID_396_" class="st0" d="M214.8,134.3l-0.8,0.4l-2.9-6.4l0.8-0.3L214.8,134.3z"/>
	<path id="XMLID_398_" class="st0" d="M224.3,134.3l-0.8,0.4l-2.9-6.4l0.8-0.3L224.3,134.3z"/>
	<path id="XMLID_400_" class="st0" d="M233.8,134.2l-0.8,0.4l-2.9-6.4l0.8-0.3L233.8,134.2z"/>
	<path id="XMLID_402_" class="st0" d="M235,134.4l3.5,0l0,0.8l-3.5,0L235,134.4z"/>
	<path id="XMLID_404_" class="st0" d="M243.3,134.2l-0.8,0.4l-2.9-6.4l0.8-0.3L243.3,134.2z"/>
	<path id="XMLID_406_" class="st0" d="M252.8,134.2l-0.8,0.4l-2.9-6.4l0.8-0.3L252.8,134.2z"/>
	<path id="XMLID_408_" class="st0" d="M256.8,127.8l0.8,0.3l-2.8,6.4l-0.8-0.4L256.8,127.8z"/>
	<path id="XMLID_410_" class="st0" d="M262.4,134.2l-0.8,0.4l-2.9-6.4l0.8-0.3L262.4,134.2z"/>
	<path id="XMLID_412_" class="st0" d="M263.5,134.4l3.5,0l0,0.8l-3.5,0L263.5,134.4z"/>
	<path id="XMLID_414_" class="st0" d="M268.3,134.4l3.5,0l0,0.8l-3.5,0L268.3,134.4z"/>
	<path id="XMLID_416_" class="st0" d="M274.1,132.9c0-0.2,0.1-0.3,0.2-0.4c0.1-0.1,0.3-0.2,0.4-0.2c0.3,0,0.5,0.1,0.7,0.3
		c0.1,0.2,0.2,0.4,0.2,0.7c0,0.2,0,0.5-0.1,0.7c-0.1,0.2-0.2,0.4-0.4,0.5c-0.1,0.1-0.3,0.3-0.5,0.4c-0.2,0.1-0.4,0.2-0.5,0.2
		l-0.2-0.4c0.1,0,0.3-0.1,0.4-0.1c0.1-0.1,0.2-0.1,0.4-0.2c0.1-0.1,0.2-0.2,0.3-0.3c0.1-0.1,0.1-0.2,0.1-0.4c-0.2,0-0.3,0-0.4,0
		c-0.1,0-0.2-0.1-0.3-0.1c-0.1-0.1-0.1-0.1-0.2-0.2C274.2,133.1,274.1,133,274.1,132.9z"/>
	<path id="XMLID_418_" class="st0" d="M285.1,128.9l-0.6,0l-1.2-1.2l1.3,0L285.1,128.9z"/>
	<path id="XMLID_420_" class="st0" d="M290.9,134.1l-0.8,0.4l-2.9-6.4l0.8-0.3L290.9,134.1z"/>
	<path id="XMLID_422_" class="st0" d="M62.7,144l-0.8,0.4l-2.9-6.4l0.8-0.3L62.7,144z"/>
	<path id="XMLID_424_" class="st0" d="M72.2,144l-0.8,0.4l-2.9-6.4l0.8-0.3L72.2,144z"/>
	<path id="XMLID_426_" class="st0" d="M73.4,144.2l3.5,0l0,0.8l-3.5,0L73.4,144.2z"/>
	<path id="XMLID_428_" class="st0" d="M78.2,144.2l3.5,0l0,0.8l-3.5,0L78.2,144.2z"/>
	<path id="XMLID_430_" class="st0" d="M82.9,144.2l3.5,0l0,0.8l-3.5,0L82.9,144.2z"/>
	<path id="XMLID_432_" class="st0" d="M87.7,144.1l3.5,0l0,0.8l-3.5,0L87.7,144.1z"/>
	<path id="XMLID_434_" class="st0" d="M95.2,137.6l0.8,0.3l-2.8,6.4l-0.8-0.4L95.2,137.6z"/>
	<path id="XMLID_436_" class="st0" d="M100.8,144l-0.8,0.4l-2.9-6.4l0.8-0.3L100.8,144z"/>
	<path id="XMLID_438_" class="st0" d="M110.3,143.9l-0.8,0.4l-2.9-6.4l0.8-0.3L110.3,143.9z"/>
	<path id="XMLID_440_" class="st0" d="M111.4,144.1l3.5,0l0,0.8l-3.5,0L111.4,144.1z"/>
	<path id="XMLID_442_" class="st0" d="M116.2,144.1l3.5,0l0,0.8l-3.5,0L116.2,144.1z"/>
	<path id="XMLID_444_" class="st0" d="M120.9,144.1l3.5,0l0,0.8l-3.5,0L120.9,144.1z"/>
	<path id="XMLID_446_" class="st0" d="M125.7,144.1l3.5,0l0,0.8l-3.5,0L125.7,144.1z"/>
	<path id="XMLID_448_" class="st0" d="M133.2,137.5l0.8,0.3l-2.8,6.4l-0.8-0.4L133.2,137.5z"/>
	<path id="XMLID_450_" class="st0" d="M143.5,143.9l-0.8,0.4l-2.9-6.4l0.8-0.3L143.5,143.9z"/>
	<path id="XMLID_452_" class="st0" d="M153,143.9l-0.8,0.4l-2.9-6.4l0.8-0.3L153,143.9z"/>
	<path id="XMLID_454_" class="st0" d="M154.2,144l3.5,0l0,0.8l-3.5,0L154.2,144z"/>
	<path id="XMLID_456_" class="st0" d="M162.6,143.9l-0.8,0.4l-2.9-6.4l0.8-0.3L162.6,143.9z"/>
	<path id="XMLID_458_" class="st0" d="M176.8,143.8l-0.8,0.4l-2.9-6.4l0.8-0.3L176.8,143.8z"/>
	<path id="XMLID_460_" class="st0" d="M186.3,143.8l-0.8,0.4l-2.9-6.4l0.8-0.3L186.3,143.8z"/>
	<path id="XMLID_462_" class="st0" d="M193.3,142.5c0-0.2,0.1-0.3,0.2-0.4c0.1-0.1,0.3-0.2,0.4-0.2c0.3,0,0.5,0.1,0.7,0.3
		s0.2,0.4,0.2,0.7c0,0.2,0,0.5-0.1,0.7c-0.1,0.2-0.2,0.4-0.4,0.5s-0.3,0.3-0.5,0.4c-0.2,0.1-0.4,0.2-0.5,0.2l-0.2-0.4
		c0.1,0,0.3-0.1,0.4-0.1c0.1-0.1,0.2-0.1,0.4-0.2c0.1-0.1,0.2-0.2,0.3-0.3c0.1-0.1,0.1-0.2,0.1-0.4c-0.2,0-0.3,0-0.4,0
		c-0.1,0-0.2-0.1-0.3-0.1c-0.1-0.1-0.1-0.1-0.2-0.2C193.4,142.7,193.3,142.6,193.3,142.5z"/>
	<path id="XMLID_464_" class="st0" d="M197,144l3.5,0l0,0.8l-3.5,0L197,144z"/>
	<path id="XMLID_466_" class="st0" d="M201.7,144l3.5,0l0,0.8l-3.5,0L201.7,144z"/>
	<path id="XMLID_468_" class="st0" d="M209.3,137.4l0.8,0.3l-2.8,6.4l-0.8-0.4L209.3,137.4z"/>
	<path id="XMLID_470_" class="st0" d="M219.6,143.8l-0.8,0.4l-2.9-6.4l0.8-0.3L219.6,143.8z"/>
	<path id="XMLID_472_" class="st0" d="M229.1,143.8l-0.8,0.4l-2.9-6.4l0.8-0.3L229.1,143.8z"/>
	<path id="XMLID_474_" class="st0" d="M230.3,143.9l3.5,0l0,0.8l-3.5,0L230.3,143.9z"/>
	<path id="XMLID_476_" class="st0" d="M235,143.9l3.5,0l0,0.8l-3.5,0L235,143.9z"/>
	<path id="XMLID_478_" class="st0" d="M239.8,143.9l3.5,0l0,0.8l-3.5,0L239.8,143.9z"/>
	<path id="XMLID_480_" class="st0" d="M244.5,143.9l3.5,0l0,0.8l-3.5,0L244.5,143.9z"/>
	<path id="XMLID_482_" class="st0" d="M252,137.3l0.8,0.3l-2.8,6.4l-0.8-0.4L252,137.3z"/>
	<path id="XMLID_484_" class="st0" d="M257.6,143.7l-0.8,0.4l-2.9-6.4l0.8-0.3L257.6,143.7z"/>
	<path id="XMLID_486_" class="st0" d="M261.6,137.3l0.8,0.3l-2.8,6.4l-0.8-0.4L261.6,137.3z"/>
	<path id="XMLID_488_" class="st0" d="M267.1,143.7l-0.8,0.4l-2.9-6.4l0.8-0.3L267.1,143.7z"/>
	<path id="XMLID_490_" class="st0" d="M268.3,143.9l3.5,0l0,0.8l-3.5,0L268.3,143.9z"/>
	<path id="XMLID_492_" class="st0" d="M273,143.9l3.5,0l0,0.8l-3.5,0L273,143.9z"/>
	<path id="XMLID_494_" class="st0" d="M277.8,143.9l3.5,0l0,0.8l-3.5,0L277.8,143.9z"/>
	<path id="XMLID_496_" class="st0" d="M282.5,143.8l3.5,0l0,0.8l-3.5,0L282.5,143.8z"/>
	<path id="XMLID_498_" class="st0" d="M290.1,137.3l0.8,0.3L288,144l-0.8-0.4L290.1,137.3z"/>
	<path id="XMLID_500_" class="st0" d="M67.5,153.5l-0.8,0.4l-2.9-6.4l0.8-0.3L67.5,153.5z"/>
	<path id="XMLID_502_" class="st0" d="M71.4,147.1l0.8,0.3l-2.8,6.4l-0.8-0.4L71.4,147.1z"/>
	<path id="XMLID_504_" class="st0" d="M73.4,153.7l3.5,0l0,0.8l-3.5,0L73.4,153.7z"/>
	<path id="XMLID_506_" class="st0" d="M78.2,153.7l3.5,0l0,0.8l-3.5,0L78.2,153.7z"/>
	<path id="XMLID_508_" class="st0" d="M82.9,153.7l3.5,0l0,0.8l-3.5,0L82.9,153.7z"/>
	<path id="XMLID_510_" class="st0" d="M90.5,147.1l0.8,0.3l-2.8,6.4l-0.8-0.4L90.5,147.1z"/>
	<path id="XMLID_512_" class="st0" d="M105.5,153.5l-0.8,0.4l-2.9-6.4l0.8-0.3L105.5,153.5z"/>
	<path id="XMLID_514_" class="st0" d="M109.5,147.1l0.8,0.3l-2.8,6.4l-0.8-0.4L109.5,147.1z"/>
	<path id="XMLID_516_" class="st0" d="M111.4,153.6l3.5,0l0,0.8l-3.5,0L111.4,153.6z"/>
	<path id="XMLID_518_" class="st0" d="M116.2,153.6l3.5,0l0,0.8l-3.5,0L116.2,153.6z"/>
	<path id="XMLID_520_" class="st0" d="M121,153.6l3.5,0l0,0.8l-3.5,0L121,153.6z"/>
	<path id="XMLID_522_" class="st0" d="M128.5,147l0.8,0.3l-2.8,6.4l-0.8-0.4L128.5,147z"/>
	<path id="XMLID_524_" class="st0" d="M148.3,153.4l-0.8,0.4l-2.9-6.4l0.8-0.3L148.3,153.4z"/>
	<path id="XMLID_526_" class="st0" d="M152.2,147l0.8,0.3l-2.8,6.4l-0.8-0.4L152.2,147z"/>
	<path id="XMLID_528_" class="st0" d="M154.2,153.6l3.5,0l0,0.8l-3.5,0L154.2,153.6z"/>
	<path id="XMLID_530_" class="st0" d="M161.7,147l0.8,0.3l-2.8,6.4l-0.8-0.4L161.7,147z"/>
	<path id="XMLID_532_" class="st0" d="M181.6,153.3l-0.8,0.4l-2.9-6.4l0.8-0.3L181.6,153.3z"/>
	<path id="XMLID_534_" class="st0" d="M191.1,153.3l-0.8,0.4l-2.9-6.4l0.8-0.3L191.1,153.3z"/>
	<path id="XMLID_536_" class="st0" d="M200.6,153.3l-0.8,0.4l-2.9-6.4l0.8-0.3L200.6,153.3z"/>
	<path id="XMLID_538_" class="st0" d="M204.5,146.9l0.8,0.3l-2.8,6.4l-0.8-0.4L204.5,146.9z"/>
	<path id="XMLID_540_" class="st0" d="M224.4,153.3l-0.8,0.4l-2.9-6.4l0.8-0.3L224.4,153.3z"/>
	<path id="XMLID_542_" class="st0" d="M228.3,146.9l0.8,0.3l-2.8,6.4l-0.8-0.4L228.3,146.9z"/>
	<path id="XMLID_544_" class="st0" d="M230.3,153.4l3.5,0l0,0.8l-3.5,0L230.3,153.4z"/>
	<path id="XMLID_546_" class="st0" d="M235,153.4l3.5,0l0,0.8l-3.5,0L235,153.4z"/>
	<path id="XMLID_548_" class="st0" d="M239.8,153.4l3.5,0l0,0.8l-3.5,0L239.8,153.4z"/>
	<path id="XMLID_550_" class="st0" d="M247.3,146.8l0.8,0.3l-2.8,6.4l-0.8-0.4L247.3,146.8z"/>
	<path id="XMLID_552_" class="st0" d="M262.4,153.2l-0.8,0.4l-2.9-6.4l0.8-0.3L262.4,153.2z"/>
	<path id="XMLID_554_" class="st0" d="M266.3,146.8l0.8,0.3l-2.8,6.4l-0.8-0.4L266.3,146.8z"/>
	<path id="XMLID_556_" class="st0" d="M268.3,153.4l3.5,0l0,0.8l-3.5,0L268.3,153.4z"/>
	<path id="XMLID_558_" class="st0" d="M273.1,153.4l3.5,0l0,0.8l-3.5,0L273.1,153.4z"/>
	<path id="XMLID_560_" class="st0" d="M277.8,153.4l3.5,0l0,0.8l-3.5,0L277.8,153.4z"/>
	<path id="XMLID_562_" class="st0" d="M285.3,146.8l0.8,0.3l-2.8,6.4l-0.8-0.4L285.3,146.8z"/>
	<path id="XMLID_564_" class="st0" d="M186.3,162.8l-0.8,0.4l-2.9-6.4l0.8-0.3L186.3,162.8z"/>
	<path id="XMLID_566_" class="st0" d="M195.9,162.8l-0.8,0.4l-2.9-6.4l0.8-0.3L195.9,162.8z"/>
	<path id="XMLID_568_" class="st0" d="M197,163l3.5,0l0,0.8l-3.5,0L197,163z"/>
	<path id="XMLID_570_" class="st0" d="M205.4,162.8l-0.8,0.4l-2.9-6.4l0.8-0.3L205.4,162.8z"/>
	<path id="XMLID_572_" class="st0" d="M191.1,172.3l-0.8,0.4l-2.9-6.4l0.8-0.3L191.1,172.3z"/>
	<path id="XMLID_574_" class="st0" d="M195,165.9l0.8,0.3l-2.8,6.4l-0.8-0.4L195,165.9z"/>
	<path id="XMLID_576_" class="st0" d="M197,172.5l3.5,0l0,0.8l-3.5,0L197,172.5z"/>
	<path id="XMLID_578_" class="st0" d="M204.6,165.9l0.8,0.3l-2.8,6.4l-0.8-0.4L204.6,165.9z"/>
</g>
</svg>
